<svg xmlns="http://www.w3.org/2000/svg" xmlns:xlink="http://www.w3.org/1999/xlink" viewBox="0 0 473.32 520.85"><defs><style>.cls-1{fill:url(#linear-gradient);}.cls-2{fill:url(#linear-gradient-2);}.cls-3{fill:url(#linear-gradient-3);}.cls-4{fill:url(#linear-gradient-4);}.cls-5{fill:url(#linear-gradient-5);}.cls-6{fill:url(#linear-gradient-6);}.cls-7{fill:url(#linear-gradient-7);}.cls-8{fill:url(#linear-gradient-8);}.cls-9{fill:url(#linear-gradient-9);}</style><linearGradient id="linear-gradient" x1="459.27" y1="441.14" x2="608.2" y2="441.14" gradientTransform="translate(505 -475.45) rotate(59.39)" gradientUnits="userSpaceOnUse"><stop offset="0" stop-color="#50a735"/><stop offset="1" stop-color="#68a735"/></linearGradient><linearGradient id="linear-gradient-2" x1="333.78" y1="508.39" x2="554.81" y2="516.11" gradientTransform="translate(519.15 -489.8) rotate(59.39)" gradientUnits="userSpaceOnUse"><stop offset="0" stop-color="#003e37"/><stop offset="0.84" stop-color="#006137"/><stop offset="1" stop-color="#006837"/></linearGradient><linearGradient id="linear-gradient-3" x1="271.13" y1="537.98" x2="559.44" y2="537.98" xlink:href="#linear-gradient"/><linearGradient id="linear-gradient-4" x1="470.31" y1="794.4" x2="292.79" y2="483.04" gradientTransform="translate(519.15 -489.8) rotate(59.39)" gradientUnits="userSpaceOnUse"><stop offset="0" stop-color="#023f37"/><stop offset="1" stop-color="#006837"/></linearGradient><linearGradient id="linear-gradient-5" x1="424.81" y1="718.48" x2="671.2" y2="718.48" gradientTransform="translate(505 -475.45) rotate(59.39)" gradientUnits="userSpaceOnUse"><stop offset="0" stop-color="#68a735"/><stop offset="1" stop-color="#50a735"/></linearGradient><linearGradient id="linear-gradient-6" x1="659.82" y1="586.35" x2="458.66" y2="890.28" xlink:href="#linear-gradient-4"/><linearGradient id="linear-gradient-7" x1="727.92" y1="511.18" x2="594.52" y2="513.04" xlink:href="#linear-gradient-2"/><linearGradient id="linear-gradient-8" x1="528.42" y1="659.74" x2="731.5" y2="659.74" xlink:href="#linear-gradient"/><linearGradient id="linear-gradient-9" x1="261.87" y1="718.48" x2="449.79" y2="718.48" xlink:href="#linear-gradient"/></defs><title>Asset 4</title><g id="Layer_2" data-name="Layer 2"><g id="Objects"><g id="logo"><polygon class="cls-1" points="329.88 211.01 371.46 137.2 460.74 199.95 412.21 286.12 329.88 211.01"/><polygon class="cls-2" points="310.9 270.98 198.16 80.42 297.15 34.47 412.97 230.22 361.76 269.93 310.9 270.98"/><path class="cls-3" d="M60.7,205.42,70.4,96.71l311.77-3.32c27.51-.29,53.7,3,72.52,28.18,15.77,21.06,21.38,52.44,5.37,79.59Z"/><path class="cls-4" d="M101.86,383.65,12.57,320.89l153-271.65c13.51-24,29.49-45,60.68-48.72,26.12-3.12,56.1,7.71,71.61,35.14Z"/><polygon class="cls-5" points="162.41 249.87 275.15 440.42 176.16 486.37 60.35 290.62 111.55 250.93 162.41 249.87"/><path class="cls-6" d="M412.62,315.43l-9.71,108.7L91.15,427.46c-27.52.29-53.71-3-72.52-28.18-15.77-21.07-21.38-52.44-5.38-79.59Z"/><path class="cls-7" d="M413,230.22l42.94,72.58c14,23.68,24.22,48,11.85,76.91-10.35,24.18-34.71,44.72-66.23,44.45L310.9,271Z"/><path class="cls-8" d="M367.59,365.92,307.74,471.6c-13.5,24-29.49,45-60.67,48.73-26.12,3.11-56.1-7.71-71.61-35.15L303.57,257.71Z"/><path class="cls-9" d="M60.35,290.62,17.4,218c-14-23.68-24.21-48-11.85-76.9C15.91,117,40.27,96.41,71.78,96.69l90.63,153.18Z"/></g></g></g></svg>