<svg xmlns="http://www.w3.org/2000/svg" xmlns:xlink="http://www.w3.org/1999/xlink" viewBox="0 0 3275.63 1120.12"><defs><style>.cls-1{font-size:516.32px;}.cls-1,.cls-2{fill:#fff;font-family:FuturaBT-HeavyItalic, Futura Hv BT;font-weight:800;font-style:italic;}.cls-2{font-size:206.53px;}.cls-3{fill:url(#linear-gradient);}.cls-4{fill:url(#linear-gradient-2);}.cls-5{fill:url(#linear-gradient-3);}.cls-6{fill:url(#linear-gradient-4);}.cls-7{fill:url(#linear-gradient-5);}.cls-8{fill:url(#linear-gradient-6);}.cls-9{fill:url(#linear-gradient-7);}.cls-10{fill:url(#linear-gradient-8);}.cls-11{fill:url(#linear-gradient-9);}</style><linearGradient id="linear-gradient" x1="895.71" y1="161.54" x2="1215.99" y2="161.54" gradientTransform="matrix(0.51, 0.86, -0.86, 0.51, 455.42, -542.5)" gradientUnits="userSpaceOnUse"><stop offset="0" stop-color="#50a735"/><stop offset="1" stop-color="#68a735"/></linearGradient><linearGradient id="linear-gradient-2" x1="619.91" y1="283.75" x2="1095.25" y2="300.35" gradientTransform="matrix(0.51, 0.86, -0.86, 0.51, 469.57, -556.85)" gradientUnits="userSpaceOnUse"><stop offset="0" stop-color="#003e37"/><stop offset="0.84" stop-color="#006137"/><stop offset="1" stop-color="#006837"/></linearGradient><linearGradient id="linear-gradient-3" x1="491.11" y1="369.8" x2="1111.13" y2="369.8" xlink:href="#linear-gradient"/><linearGradient id="linear-gradient-4" x1="913.6" y1="898.84" x2="531.69" y2="229.29" gradientTransform="matrix(0.51, 0.86, -0.86, 0.51, 469.57, -556.85)" gradientUnits="userSpaceOnUse"><stop offset="0" stop-color="#023f37"/><stop offset="1" stop-color="#006837"/></linearGradient><linearGradient id="linear-gradient-5" x1="821.6" y1="757.99" x2="1351.49" y2="757.99" gradientTransform="matrix(0.51, 0.86, -0.86, 0.51, 455.42, -542.5)" gradientUnits="userSpaceOnUse"><stop offset="0" stop-color="#68a735"/><stop offset="1" stop-color="#50a735"/></linearGradient><linearGradient id="linear-gradient-6" x1="1321.09" y1="451.41" x2="888.48" y2="1105.03" xlink:href="#linear-gradient-4"/><linearGradient id="linear-gradient-7" x1="1467.54" y1="289.75" x2="1180.67" y2="293.76" xlink:href="#linear-gradient-2"/><linearGradient id="linear-gradient-8" x1="1044.43" y1="631.66" x2="1481.17" y2="631.66" xlink:href="#linear-gradient"/><linearGradient id="linear-gradient-9" x1="471.18" y1="757.99" x2="875.33" y2="757.99" xlink:href="#linear-gradient"/></defs><title>Asset 3</title><g id="Layer_2" data-name="Layer 2"><g id="Objects"><g id="name"><text class="cls-1" transform="translate(1144.41 723.32)">Swagath</text><text class="cls-2" transform="translate(2417.66 915.82)">Nursery</text></g><g id="logo"><polygon class="cls-3" points="709.43 453.8 798.85 295.06 990.86 430.01 886.49 615.33 709.43 453.8"/><polygon class="cls-4" points="668.62 582.76 426.16 172.95 639.05 74.14 888.12 495.11 778 580.49 668.62 582.76"/><path class="cls-5" d="M130.55,441.77,151.41,208l670.47-7.15c59.18-.63,115.49,6.55,156,60.6,33.91,45.3,46,112.78,11.55,171.17Z"/><path class="cls-6" d="M219.06,825.06,27,690.1l329-584.2c29-51.56,63.42-96.76,130.48-104.78,56.18-6.71,120.65,16.58,154,75.56Z"/><polygon class="cls-7" points="349.28 537.36 591.74 947.16 378.85 1045.98 129.78 625.01 239.9 539.64 349.28 537.36"/><path class="cls-8" d="M887.36,678.36,866.5,912.13,196,919.28c-59.17.63-115.5-6.55-156-60.61-33.9-45.3-46-112.77-11.56-171.16Z"/><path class="cls-9" d="M888.12,495.11,980.47,651.2c30.13,50.93,52.09,103.3,25.49,165.39-22.26,52-74.66,96.18-142.43,95.59L668.62,582.76Z"/><path class="cls-10" d="M790.53,786.94,661.81,1014.22c-29,51.56-63.41,96.77-130.47,104.78-56.18,6.71-120.64-16.57-154-75.57l275.51-489.2Z"/><path class="cls-11" d="M129.78,625,37.43,468.92C7.3,418-14.65,365.61,11.94,303.53c22.27-52,74.67-96.19,142.44-95.59l194.9,329.42Z"/></g></g></g></svg>